<?xml version="1.0" encoding="UTF-8"?>
<svg id="Camada_1" xmlns="http://www.w3.org/2000/svg" version="1.1" viewBox="0 0 2432.67 348.02">
  <!-- Generator: Adobe Illustrator 29.6.1, SVG Export Plug-In . SVG Version: 2.1.1 Build 9)  -->
  <defs>
    <style>
      .st0, .st1 {
        fill: #fff;
      }

      .st1 {
        stroke: #1d1d1b;
        stroke-miterlimit: 10;
      }

      .st2 {
        fill: #009640;
      }
    </style>
  </defs>
  <path class="st1" d="M167.46,219.79c26.8,34.06,13.78,84.64,13.23,86.76-.62,2.19-2.54,3.77-4.87,3.77-2.19.07-54.34.75-81.14-33.31-12.47-15.83-17.2-36.38-14.25-61.26.82-6.85,2.19-13.98,4.18-21.45.62-2.19,2.6-3.77,4.86-3.77,35.91-.75,62.09,9.05,77.99,29.26Z"/>
  <path class="st1" d="M214.54,204.37c-4.86,4.87-10.41,9.6-16.58,14.26-1.78,1.37-4.32,1.37-6.17,0-28.65-21.59-43.17-45.51-43.17-71.21,0-43.38,41.46-75.04,43.17-76.34,1.85-1.37,4.39-1.37,6.17,0,1.78,1.3,43.24,32.96,43.24,76.34,0,20.15-8.98,39.27-26.66,56.95Z"/>
  <path class="st1" d="M297.4,274.55c-25.98,34.67-78.13,35.22-80.32,35.22-2.33,0-4.32-1.51-4.94-3.7-.68-2.12-14.8-52.29,11.17-87.03,12.07-16.11,30.71-26.04,55.51-29.61,6.79-.96,14.05-1.51,21.73-1.51,2.33,0,4.32,1.51,4.93,3.71,10.08,34.47,7.34,62.36-8.08,82.92Z"/>
  <path class="st2" d="M375.04,250.63l-62.64-105.13-65.1-109.3c-23.16-38.93-79.56-38.93-102.73,0l-65.1,109.3-62.64,105.13c-23.71,39.89,5,90.39,51.4,90.39h255.41c46.4,0,75.11-50.5,51.4-90.39ZM94.68,277.01c-12.47-15.83-17.2-36.38-14.25-61.26.82-6.85,2.19-13.98,4.18-21.45.62-2.19,2.6-3.77,4.86-3.77,35.91-.75,62.09,9.05,77.99,29.26,26.8,34.06,13.78,84.64,13.23,86.76-.62,2.19-2.54,3.77-4.87,3.77-2.19.07-54.34.75-81.14-33.31ZM191.79,71.08c1.85-1.37,4.39-1.37,6.17,0,1.78,1.3,43.24,32.96,43.24,76.34,0,20.15-8.98,39.27-26.66,56.95-4.86,4.87-10.41,9.6-16.58,14.26-1.78,1.37-4.32,1.37-6.17,0-28.65-21.59-43.17-45.51-43.17-71.21,0-43.38,41.46-75.04,43.17-76.34ZM212.14,306.07c-.68-2.12-14.8-52.29,11.17-87.03,12.07-16.11,30.71-26.04,55.51-29.61,6.79-.96,14.05-1.51,21.73-1.51,2.33,0,4.32,1.51,4.93,3.71,10.08,34.47,7.34,62.36-8.08,82.92-25.98,34.67-78.13,35.22-80.32,35.22-2.33,0-4.32-1.51-4.94-3.7Z"/>
  <g>
    <path class="st0" d="M627.44,66.64h-58.59l-82.63,220.53h53.06l13.54-38.69h89.82l13.54,38.69h54.44l-83.18-220.53ZM568.85,202.89l28.74-81.53,28.74,81.53h-57.48Z"/>
    <path class="st0" d="M902.97,242.13c-8.29,0-12.99-4.7-12.99-12.99V56.97h-46.7v83.46c-12.44-12.71-29.57-20.17-49.19-20.17-44.77,0-78.76,36.75-78.76,85.39s33.99,85.4,78.76,85.4c22.66,0,41.45-9.95,54.44-25.98,7.46,14.65,22.11,22.11,44.49,22.11h13.27v-45.05h-3.32ZM803.2,246c-22.66,0-39.52-17.41-39.52-40.35s16.86-40.35,39.52-40.35,40.07,17.41,40.07,40.35-17.13,40.35-40.07,40.35Z"/>
    <path class="st0" d="M1096.42,242.13c-8.29,0-13.26-4.7-13.26-12.99v-105.02h-46.7v90.92c0,18.52-12.71,30.95-31.51,30.95-17.69,0-29.02-12.16-29.02-30.4v-91.48h-46.7v105.57c0,37.03,24.04,61.35,59.97,61.35,22.11,0,40.07-8.84,52.78-25.98,7.19,14.65,22.11,22.11,44.49,22.11h12.99v-45.05h-3.04Z"/>
    <path class="st0" d="M1219.68,120.26c-19.9,0-36.76,7.46-49.19,20.17V56.97h-46.7v230.21h46.7v-16.31c12.43,12.71,29.29,20.18,49.19,20.18,45.05,0,78.76-36.76,78.76-85.4s-33.72-85.39-78.76-85.39ZM1210.56,246c-23.21,0-40.07-17.41-40.07-40.35s16.86-40.35,40.07-40.35,39.8,17.41,39.8,40.35-16.86,40.35-39.8,40.35Z"/>
    <path class="st0" d="M1404.84,120.26c-50.3,0-87.88,36.75-87.88,85.39s37.58,85.4,87.88,85.4,87.88-36.76,87.88-85.4-37.86-85.39-87.88-85.39ZM1404.84,246c-22.94,0-40.07-17.41-40.07-40.35s17.13-40.35,40.07-40.35,39.8,17.41,39.8,40.35-16.86,40.35-39.8,40.35Z"/>
    <path class="st0" d="M1558.77,169.17c0-7.18,8.01-12.16,18.52-12.16,11.88,0,20.45,5.8,20.45,14.37h46.43c0-29.29-27.36-51.13-66.33-51.13-35.93,0-64.95,18.24-64.95,52.78,0,58.86,87.61,44.22,87.61,67.99,0,7.46-8.84,12.99-20.45,12.99-13.54,0-23.21-6.91-23.21-16.3h-46.43c0,30.4,27.91,53.34,69.64,53.34,39.52,0,66.6-22.11,66.6-54.72,0-58.03-87.88-44.22-87.88-67.16Z"/>
    <path class="st0" d="M1917.49,240.47c-14.37,0-25.42-5.53-33.99-17.13l-10.5-15.48c30.12-9.12,50.3-34.82,50.3-67.43,0-42.28-32.89-73.79-76.83-73.79h-99.21v220.53h49.47v-75.45h19.9l20.45,34.55c14.92,27.36,39.8,40.9,74.89,40.9h15.2v-46.7h-9.67ZM1845.63,168.62h-48.92v-55.27h48.92c15.2,0,26.81,11.88,26.81,27.64s-11.61,27.64-26.81,27.64Z"/>
    <path class="st0" d="M2116.19,206.76c0-50.02-37.86-86.5-87.88-86.5s-87.88,36.75-87.88,85.39,37.86,85.4,88.44,85.4c40.07,0,72.68-22.39,84.84-55.27h-49.74c-6.63,8.84-18.79,15.2-33.99,15.2-19.35,0-34.55-11.61-39.52-30.4h124.64c.83-4.15,1.1-9.4,1.1-13.82ZM1990.72,189.62c4.97-17.96,19.07-29.3,37.58-29.3s33.44,11.33,38.14,29.3h-75.72Z"/>
    <path class="st0" d="M2321.8,242.13c-8.29,0-12.99-4.7-12.99-12.99v-105.02h-46.7v16.31c-12.44-12.71-29.57-20.17-49.19-20.17-44.77,0-78.76,36.75-78.76,85.39s33.99,85.4,78.76,85.4c22.66,0,41.45-9.95,54.72-25.98,7.19,14.65,21.83,22.11,44.22,22.11h13.26v-45.05h-3.32ZM2222.04,246c-22.66,0-39.52-17.41-39.52-40.35s16.86-40.35,39.52-40.35,40.07,17.41,40.07,40.35-16.86,40.35-40.07,40.35Z"/>
    <path class="st0" d="M2414.66,242.13c-10.78,0-16.86-5.8-16.86-16.03V56.97h-46.43v179.36c0,33.72,19.07,50.85,56.38,50.85h16.58v-45.05h-9.67Z"/>
  </g>
</svg>